<mxfile host="app.diagrams.net" modified="2020-08-10T02:07:39.697Z" agent="5.0 (Macintosh; Intel Mac OS X 10_15_6) AppleWebKit/537.36 (KHTML, like Gecko) Chrome/84.0.4147.105 Safari/537.36" etag="0job540QEOYjbLpWf-lc" version="13.6.2" type="github">
  <diagram id="R2lEEEUBdFMjLlhIrx00" name="Page-1">
    <mxGraphModel dx="1307" dy="1026" grid="1" gridSize="10" guides="1" tooltips="1" connect="1" arrows="1" fold="1" page="1" pageScale="1" pageWidth="850" pageHeight="1100" math="0" shadow="0" extFonts="Permanent Marker^https://fonts.googleapis.com/css?family=Permanent+Marker">
      <root>
        <mxCell id="0" />
        <mxCell id="1" parent="0" />
        <mxCell id="4LiEzhh0AqkKglfwiTpC-64" style="edgeStyle=orthogonalEdgeStyle;rounded=0;orthogonalLoop=1;jettySize=auto;html=1;entryX=0.5;entryY=0;entryDx=0;entryDy=0;fontSize=17;fontColor=#663300;endArrow=ERmany;endFill=0;startSize=15;endSize=15;startArrow=ERone;startFill=0;jumpSize=0;exitX=0.474;exitY=1.002;exitDx=0;exitDy=0;exitPerimeter=0;" edge="1" parent="1" source="4LiEzhh0AqkKglfwiTpC-1" target="4LiEzhh0AqkKglfwiTpC-49">
          <mxGeometry relative="1" as="geometry">
            <mxPoint x="264" y="300" as="sourcePoint" />
            <Array as="points" />
          </mxGeometry>
        </mxCell>
        <mxCell id="4LiEzhh0AqkKglfwiTpC-1" value="" style="whiteSpace=wrap;html=1;aspect=fixed;fillColor=#dae8fc;strokeColor=#6c8ebf;" vertex="1" parent="1">
          <mxGeometry x="162" y="75" width="215" height="215" as="geometry" />
        </mxCell>
        <mxCell id="4LiEzhh0AqkKglfwiTpC-5" value="" style="endArrow=none;html=1;exitX=-0.01;exitY=0.15;exitDx=0;exitDy=0;entryX=1;entryY=0.15;entryDx=0;entryDy=0;fillColor=#dae8fc;strokeColor=#6c8ebf;exitPerimeter=0;entryPerimeter=0;" edge="1" parent="1" source="4LiEzhh0AqkKglfwiTpC-1" target="4LiEzhh0AqkKglfwiTpC-1">
          <mxGeometry width="50" height="50" relative="1" as="geometry">
            <mxPoint x="352" y="395" as="sourcePoint" />
            <mxPoint x="402" y="345" as="targetPoint" />
            <Array as="points">
              <mxPoint x="252" y="105" />
            </Array>
          </mxGeometry>
        </mxCell>
        <mxCell id="4LiEzhh0AqkKglfwiTpC-17" value="&lt;b style=&quot;font-size: 19px&quot;&gt;&lt;font color=&quot;#000066&quot;&gt;users&lt;/font&gt;&lt;/b&gt;" style="text;html=1;strokeColor=none;fillColor=none;align=center;verticalAlign=middle;whiteSpace=wrap;rounded=0;fontStyle=4;fontSize=19;" vertex="1" parent="1">
          <mxGeometry x="229.5" y="75" width="69" height="30" as="geometry" />
        </mxCell>
        <mxCell id="4LiEzhh0AqkKglfwiTpC-41" value="" style="group;fillColor=#f8cecc;strokeColor=#b85450;" vertex="1" connectable="0" parent="1">
          <mxGeometry x="550" y="397.5" width="226.92" height="200" as="geometry" />
        </mxCell>
        <mxCell id="4LiEzhh0AqkKglfwiTpC-43" value="" style="endArrow=none;html=1;exitX=-0.01;exitY=0.15;exitDx=0;exitDy=0;entryX=1;entryY=0.15;entryDx=0;entryDy=0;fillColor=#f8cecc;strokeColor=#b85450;exitPerimeter=0;entryPerimeter=0;" edge="1" parent="4LiEzhh0AqkKglfwiTpC-41">
          <mxGeometry width="50" height="50" relative="1" as="geometry">
            <mxPoint x="-2" y="29.999999999999773" as="sourcePoint" />
            <mxPoint x="200" y="29.999999999999773" as="targetPoint" />
            <Array as="points" />
          </mxGeometry>
        </mxCell>
        <mxCell id="4LiEzhh0AqkKglfwiTpC-44" value="&lt;b style=&quot;font-size: 19px&quot;&gt;&lt;font color=&quot;#000066&quot;&gt;fav/likes&lt;/font&gt;&lt;/b&gt;" style="text;html=1;align=center;verticalAlign=middle;whiteSpace=wrap;rounded=0;fontStyle=4;fontSize=19;" vertex="1" parent="4LiEzhh0AqkKglfwiTpC-41">
          <mxGeometry x="20" width="160" height="30" as="geometry" />
        </mxCell>
        <mxCell id="4LiEzhh0AqkKglfwiTpC-57" value="&lt;font color=&quot;#000066&quot; style=&quot;font-size: 17px&quot;&gt;id - SPK&lt;br style=&quot;font-size: 17px&quot;&gt;created_at - Timestamp&lt;br style=&quot;font-size: 17px&quot;&gt;updated_at - Timestamp&lt;br style=&quot;font-size: 17px&quot;&gt;user_id - FRK&lt;br style=&quot;font-size: 17px&quot;&gt;recipe_id - FRK&lt;br&gt;comment_id - FRK&lt;br&gt;sub-comment_id - FRK&lt;br style=&quot;font-size: 17px&quot;&gt;&lt;/font&gt;" style="text;html=1;strokeColor=none;fillColor=none;align=left;verticalAlign=middle;whiteSpace=wrap;rounded=0;fontSize=17;fontColor=#663300;" vertex="1" parent="4LiEzhh0AqkKglfwiTpC-41">
          <mxGeometry x="10" y="42.5" width="216.92" height="145" as="geometry" />
        </mxCell>
        <mxCell id="4LiEzhh0AqkKglfwiTpC-71" value="" style="edgeStyle=orthogonalEdgeStyle;rounded=0;jumpSize=0;orthogonalLoop=1;jettySize=auto;html=1;startArrow=ERone;startFill=0;startSize=15;endArrow=ERmany;endFill=0;endSize=15;fontSize=17;fontColor=#663300;entryX=-0.004;entryY=0.538;entryDx=0;entryDy=0;entryPerimeter=0;" edge="1" parent="1" target="4LiEzhh0AqkKglfwiTpC-51">
          <mxGeometry relative="1" as="geometry">
            <mxPoint x="160" y="250" as="sourcePoint" />
            <mxPoint x="39.99999999999977" y="195" as="targetPoint" />
            <Array as="points">
              <mxPoint x="60" y="250" />
              <mxPoint x="60" y="806" />
            </Array>
          </mxGeometry>
        </mxCell>
        <mxCell id="4LiEzhh0AqkKglfwiTpC-46" value="&lt;font color=&quot;#000066&quot; style=&quot;font-size: 17px;&quot;&gt;id - SPK&lt;br style=&quot;font-size: 17px;&quot;&gt;username - TEXT&lt;br style=&quot;font-size: 17px;&quot;&gt;email - TEXT&lt;br style=&quot;font-size: 17px;&quot;&gt;password - TEXT&lt;br style=&quot;font-size: 17px;&quot;&gt;img_url - TEXT&lt;br style=&quot;font-size: 17px;&quot;&gt;created_at - Timestamp&lt;br style=&quot;font-size: 17px;&quot;&gt;updated_at - Timestamp&lt;br style=&quot;font-size: 17px;&quot;&gt;&lt;/font&gt;" style="text;html=1;strokeColor=none;fillColor=none;align=left;verticalAlign=middle;whiteSpace=wrap;rounded=0;fontSize=17;fontColor=#663300;" vertex="1" parent="1">
          <mxGeometry x="167" y="120" width="220" height="150" as="geometry" />
        </mxCell>
        <mxCell id="4LiEzhh0AqkKglfwiTpC-47" value="" style="whiteSpace=wrap;html=1;aspect=fixed;fillColor=#dae8fc;strokeColor=#6c8ebf;" vertex="1" parent="1">
          <mxGeometry x="162" y="390" width="215" height="215" as="geometry" />
        </mxCell>
        <mxCell id="4LiEzhh0AqkKglfwiTpC-48" value="" style="endArrow=none;html=1;exitX=-0.01;exitY=0.15;exitDx=0;exitDy=0;entryX=1;entryY=0.15;entryDx=0;entryDy=0;fillColor=#dae8fc;strokeColor=#6c8ebf;exitPerimeter=0;entryPerimeter=0;" edge="1" parent="1" source="4LiEzhh0AqkKglfwiTpC-47" target="4LiEzhh0AqkKglfwiTpC-47">
          <mxGeometry width="50" height="50" relative="1" as="geometry">
            <mxPoint x="352" y="710" as="sourcePoint" />
            <mxPoint x="402" y="660" as="targetPoint" />
            <Array as="points">
              <mxPoint x="252" y="420" />
            </Array>
          </mxGeometry>
        </mxCell>
        <mxCell id="4LiEzhh0AqkKglfwiTpC-49" value="&lt;font color=&quot;#000066&quot;&gt;&lt;b&gt;recipes&lt;/b&gt;&lt;/font&gt;" style="text;html=1;strokeColor=none;fillColor=none;align=center;verticalAlign=middle;whiteSpace=wrap;rounded=0;fontStyle=4;fontSize=19;" vertex="1" parent="1">
          <mxGeometry x="229.5" y="390" width="69" height="30" as="geometry" />
        </mxCell>
        <mxCell id="4LiEzhh0AqkKglfwiTpC-65" value="" style="edgeStyle=orthogonalEdgeStyle;rounded=0;jumpSize=0;orthogonalLoop=1;jettySize=auto;html=1;startArrow=ERone;startFill=0;startSize=15;endArrow=ERmany;endFill=0;endSize=15;fontSize=17;fontColor=#663300;exitX=0.46;exitY=0.998;exitDx=0;exitDy=0;exitPerimeter=0;" edge="1" parent="1" source="4LiEzhh0AqkKglfwiTpC-47" target="4LiEzhh0AqkKglfwiTpC-53">
          <mxGeometry relative="1" as="geometry">
            <mxPoint x="260" y="610" as="sourcePoint" />
            <Array as="points">
              <mxPoint x="261" y="640" />
              <mxPoint x="260" y="640" />
            </Array>
          </mxGeometry>
        </mxCell>
        <mxCell id="4LiEzhh0AqkKglfwiTpC-68" style="edgeStyle=orthogonalEdgeStyle;rounded=0;jumpSize=0;orthogonalLoop=1;jettySize=auto;html=1;startArrow=ERone;startFill=0;startSize=15;endArrow=ERmany;endFill=0;endSize=15;fontSize=17;fontColor=#663300;exitX=0.968;exitY=0.275;exitDx=0;exitDy=0;exitPerimeter=0;" edge="1" parent="1" source="4LiEzhh0AqkKglfwiTpC-50">
          <mxGeometry relative="1" as="geometry">
            <mxPoint x="370" y="476" as="sourcePoint" />
            <mxPoint x="550" y="476" as="targetPoint" />
          </mxGeometry>
        </mxCell>
        <mxCell id="4LiEzhh0AqkKglfwiTpC-50" value="&lt;font color=&quot;#000066&quot; style=&quot;font-size: 17px;&quot;&gt;id - SPK&lt;br style=&quot;font-size: 17px;&quot;&gt;content - TEXT&lt;br style=&quot;font-size: 17px;&quot;&gt;img_url - TEXT&lt;br style=&quot;font-size: 17px;&quot;&gt;created_at - Timestamp&lt;br style=&quot;font-size: 17px;&quot;&gt;updated_at - Timestamp&lt;br style=&quot;font-size: 17px;&quot;&gt;user_id - FRK&lt;br style=&quot;font-size: 17px;&quot;&gt;&lt;/font&gt;" style="text;html=1;strokeColor=none;fillColor=none;align=left;verticalAlign=middle;whiteSpace=wrap;rounded=0;fontSize=17;fontColor=#663300;" vertex="1" parent="1">
          <mxGeometry x="167" y="435" width="220" height="150" as="geometry" />
        </mxCell>
        <mxCell id="4LiEzhh0AqkKglfwiTpC-51" value="" style="whiteSpace=wrap;html=1;aspect=fixed;fillColor=#dae8fc;strokeColor=#6c8ebf;" vertex="1" parent="1">
          <mxGeometry x="155.08" y="690" width="215" height="215" as="geometry" />
        </mxCell>
        <mxCell id="4LiEzhh0AqkKglfwiTpC-52" value="" style="endArrow=none;html=1;exitX=-0.01;exitY=0.15;exitDx=0;exitDy=0;entryX=1;entryY=0.15;entryDx=0;entryDy=0;fillColor=#dae8fc;strokeColor=#6c8ebf;exitPerimeter=0;entryPerimeter=0;" edge="1" parent="1" source="4LiEzhh0AqkKglfwiTpC-51" target="4LiEzhh0AqkKglfwiTpC-51">
          <mxGeometry width="50" height="50" relative="1" as="geometry">
            <mxPoint x="348.08" y="1010" as="sourcePoint" />
            <mxPoint x="398.08" y="960" as="targetPoint" />
            <Array as="points">
              <mxPoint x="248.08" y="720" />
            </Array>
          </mxGeometry>
        </mxCell>
        <mxCell id="4LiEzhh0AqkKglfwiTpC-53" value="&lt;b style=&quot;font-size: 19px&quot;&gt;&lt;font color=&quot;#000066&quot;&gt;comment&lt;/font&gt;&lt;/b&gt;" style="text;html=1;strokeColor=none;fillColor=none;align=center;verticalAlign=middle;whiteSpace=wrap;rounded=0;fontStyle=4;fontSize=19;" vertex="1" parent="1">
          <mxGeometry x="225.58" y="690" width="69" height="30" as="geometry" />
        </mxCell>
        <mxCell id="4LiEzhh0AqkKglfwiTpC-66" style="edgeStyle=orthogonalEdgeStyle;rounded=0;jumpSize=0;orthogonalLoop=1;jettySize=auto;html=1;startArrow=ERone;startFill=0;startSize=15;endArrow=ERmany;endFill=0;endSize=15;fontSize=17;fontColor=#663300;" edge="1" parent="1">
          <mxGeometry relative="1" as="geometry">
            <mxPoint x="550" y="810" as="targetPoint" />
            <mxPoint x="370" y="813" as="sourcePoint" />
            <Array as="points">
              <mxPoint x="530" y="813" />
            </Array>
          </mxGeometry>
        </mxCell>
        <mxCell id="4LiEzhh0AqkKglfwiTpC-69" style="edgeStyle=orthogonalEdgeStyle;rounded=0;jumpSize=0;orthogonalLoop=1;jettySize=auto;html=1;startArrow=ERone;startFill=0;startSize=15;endArrow=ERmany;endFill=0;endSize=15;fontSize=17;fontColor=#663300;" edge="1" parent="1">
          <mxGeometry relative="1" as="geometry">
            <mxPoint x="550" y="567" as="targetPoint" />
            <mxPoint x="370" y="776" as="sourcePoint" />
            <Array as="points">
              <mxPoint x="480" y="776" />
              <mxPoint x="480" y="567" />
            </Array>
          </mxGeometry>
        </mxCell>
        <mxCell id="4LiEzhh0AqkKglfwiTpC-54" value="&lt;font color=&quot;#000066&quot; style=&quot;font-size: 17px;&quot;&gt;id - SPK&lt;br style=&quot;font-size: 17px;&quot;&gt;content - TEXT&lt;br style=&quot;font-size: 17px;&quot;&gt;created_at - Timestamp&lt;br style=&quot;font-size: 17px;&quot;&gt;updated_at - Timestamp&lt;br style=&quot;font-size: 17px;&quot;&gt;user_id - FRK&lt;br style=&quot;font-size: 17px;&quot;&gt;recipe_id - FRK&lt;br style=&quot;font-size: 17px;&quot;&gt;&lt;/font&gt;" style="text;html=1;strokeColor=none;fillColor=none;align=left;verticalAlign=middle;whiteSpace=wrap;rounded=0;fontSize=17;fontColor=#663300;" vertex="1" parent="1">
          <mxGeometry x="163.08" y="740" width="216.92" height="145" as="geometry" />
        </mxCell>
        <mxCell id="4LiEzhh0AqkKglfwiTpC-59" value="" style="group;fillColor=#f8cecc;strokeColor=#b85450;" vertex="1" connectable="0" parent="1">
          <mxGeometry x="550" y="690" width="230" height="220" as="geometry" />
        </mxCell>
        <mxCell id="4LiEzhh0AqkKglfwiTpC-60" value="" style="endArrow=none;html=1;exitX=-0.01;exitY=0.15;exitDx=0;exitDy=0;entryX=1;entryY=0.15;entryDx=0;entryDy=0;fillColor=#f8cecc;strokeColor=#b85450;exitPerimeter=0;entryPerimeter=0;" edge="1" parent="4LiEzhh0AqkKglfwiTpC-59">
          <mxGeometry width="50" height="50" relative="1" as="geometry">
            <mxPoint x="-2.027146130794994" y="32.99999999999975" as="sourcePoint" />
            <mxPoint x="202.7146130794994" y="32.99999999999975" as="targetPoint" />
            <Array as="points" />
          </mxGeometry>
        </mxCell>
        <mxCell id="4LiEzhh0AqkKglfwiTpC-61" value="&lt;b style=&quot;font-size: 19px&quot;&gt;&lt;font color=&quot;#000066&quot;&gt;sub-comment&lt;/font&gt;&lt;/b&gt;" style="text;html=1;align=center;verticalAlign=middle;whiteSpace=wrap;rounded=0;fontStyle=4;fontSize=19;" vertex="1" parent="4LiEzhh0AqkKglfwiTpC-59">
          <mxGeometry x="20.27146130794994" width="162.17169046359953" height="33" as="geometry" />
        </mxCell>
        <mxCell id="4LiEzhh0AqkKglfwiTpC-62" value="&lt;font color=&quot;#000066&quot; style=&quot;font-size: 17px&quot;&gt;id - SPK&lt;br&gt;content - TEXT&lt;br style=&quot;font-size: 17px&quot;&gt;created_at - Timestamp&lt;br style=&quot;font-size: 17px&quot;&gt;updated_at - Timestamp&lt;br style=&quot;font-size: 17px&quot;&gt;user_id - FRK&lt;br&gt;comment_id - FRK&lt;br&gt;sub-comment - FRK&lt;br style=&quot;font-size: 17px&quot;&gt;&lt;/font&gt;" style="text;html=1;strokeColor=none;fillColor=none;align=left;verticalAlign=middle;whiteSpace=wrap;rounded=0;fontSize=17;fontColor=#663300;" vertex="1" parent="4LiEzhh0AqkKglfwiTpC-59">
          <mxGeometry x="10.13573065397497" y="46.74999999999999" width="219.86426934602505" height="159.5" as="geometry" />
        </mxCell>
        <mxCell id="4LiEzhh0AqkKglfwiTpC-67" style="edgeStyle=orthogonalEdgeStyle;rounded=0;jumpSize=0;orthogonalLoop=1;jettySize=auto;html=1;exitX=1;exitY=0;exitDx=0;exitDy=0;entryX=1;entryY=0.75;entryDx=0;entryDy=0;startArrow=ERone;startFill=0;startSize=15;endArrow=ERmany;endFill=0;endSize=15;fontSize=17;fontColor=#663300;" edge="1" parent="4LiEzhh0AqkKglfwiTpC-59" source="4LiEzhh0AqkKglfwiTpC-62" target="4LiEzhh0AqkKglfwiTpC-62">
          <mxGeometry relative="1" as="geometry">
            <Array as="points">
              <mxPoint x="280" y="47" />
              <mxPoint x="280" y="166" />
            </Array>
          </mxGeometry>
        </mxCell>
        <mxCell id="4LiEzhh0AqkKglfwiTpC-72" style="edgeStyle=orthogonalEdgeStyle;rounded=0;jumpSize=0;orthogonalLoop=1;jettySize=auto;html=1;exitX=1;exitY=0.25;exitDx=0;exitDy=0;startArrow=ERone;startFill=0;startSize=15;endArrow=ERmany;endFill=0;endSize=15;fontSize=17;fontColor=#663300;" edge="1" parent="1" source="4LiEzhh0AqkKglfwiTpC-62">
          <mxGeometry relative="1" as="geometry">
            <mxPoint x="780.4285714285716" y="500.0000000000002" as="targetPoint" />
            <Array as="points">
              <mxPoint x="810" y="777" />
              <mxPoint x="810" y="500" />
            </Array>
          </mxGeometry>
        </mxCell>
      </root>
    </mxGraphModel>
  </diagram>
</mxfile>
